<?xml version="1.0" encoding="UTF-8" standalone="no"?>
<!-- Created with Inkscape (http://www.inkscape.org/) -->

<svg
   xmlns:dc="http://purl.org/dc/elements/1.1/"
   xmlns:cc="http://creativecommons.org/ns#"
   xmlns:rdf="http://www.w3.org/1999/02/22-rdf-syntax-ns#"
   xmlns:svg="http://www.w3.org/2000/svg"
   xmlns="http://www.w3.org/2000/svg"
   xmlns:sodipodi="http://sodipodi.sourceforge.net/DTD/sodipodi-0.dtd"
   xmlns:inkscape="http://www.inkscape.org/namespaces/inkscape"
   width="505.44794mm"
   height="182.68907mm"
   viewBox="0 0 1790.9573 647.32348"
   id="svg2"
   version="1.1"
   inkscape:version="0.91 r13725"
   sodipodi:docname="drawing.svg">
  <defs
     id="defs4" />
  <sodipodi:namedview
     id="base"
     pagecolor="#ffffff"
     bordercolor="#666666"
     borderopacity="1.0"
     inkscape:pageopacity="0.0"
     inkscape:pageshadow="2"
     inkscape:zoom="0.35"
     inkscape:cx="466.96802"
     inkscape:cy="315.89488"
     inkscape:document-units="px"
     inkscape:current-layer="layer1"
     showgrid="false"
     inkscape:window-width="1640"
     inkscape:window-height="740"
     inkscape:window-x="236"
     inkscape:window-y="100"
     inkscape:window-maximized="0"
     fit-margin-top="0"
     fit-margin-left="0"
     fit-margin-right="0"
     fit-margin-bottom="0" />
  <metadata
     id="metadata7">
    <rdf:RDF>
      <cc:Work
         rdf:about="">
        <dc:format>image/svg+xml</dc:format>
        <dc:type
           rdf:resource="http://purl.org/dc/dcmitype/StillImage" />
        <dc:title></dc:title>
      </cc:Work>
    </rdf:RDF>
  </metadata>
  <g
     inkscape:label="Layer 1"
     inkscape:groupmode="layer"
     id="layer1"
     transform="translate(468.3966,-203.79076)">
    <a
       id="a4150"
       transform="translate(-11.428571,22.857143)">
      <path
         inkscape:connector-curvature="0"
         id="path4147"
         d="m -276.51782,827.04957 c -50.4982,-5.3095 -96.9738,-25.2771 -127.3043,-54.6943 -51.0708,-49.5331 -66.3812,-129.1932 -41.3713,-215.25447 13.1714,-45.32372 41.4075,-105.12739 75.1574,-159.18197 27.3102,-43.74068 73.2853,-105.78785 110.2891,-148.84423 17.9066,-20.83554 63.4595,-68.14098 65.6165,-68.14098 0.2233,0 -3.3857,7.73438 -8.02,17.1875 -28.3886,57.90784 -45.134,105.12091 -53.9772,152.1875 -2.3738,12.63391 -2.824,19.33784 -2.8543,42.5 -0.032,24.37147 0.2977,28.99316 2.8967,40.625 14.084,63.03336 62.4072,104.83192 136.4424,118.01982 30.954604,5.51395 60.314204,5.52436 98.531808,0.0349 38.0379,-5.46361 46.623,-7.64991 277.093142,-70.5657 55,-15.01437 104.5,-28.5179 110,-30.00782 5.5,-1.48993 33.34375,-9.0844 61.875,-16.87663 28.53125,-7.79221 54.96875,-14.99655 58.75,-16.00964 7.17327,-1.92188 46.48802,-12.73851 71.25,-19.60294 7.90625,-2.19175 24.21875,-6.68786 36.25,-9.99136 12.03125,-3.30351 44.65625,-12.2877 72.5,-19.96489 27.84375,-7.67717 57.65625,-15.8522 66.25,-18.16671 8.59375,-2.31452 35.3125,-9.61669 59.375,-16.22704 24.0625,-6.61035 47.6875,-13.0594 52.5,-14.33121 13.55388,-3.58192 109.95213,-29.83112 121.875,-33.1865 5.84375,-1.64457 30.59375,-8.39826 54.99997,-15.00821 24.4063,-6.60994 49.1563,-13.35766 55,-14.99494 13.8238,-3.87307 18.9044,-5.26817 145.625,-39.98735 59.125,-16.19919 108.625,-29.78195 110,-30.18394 4.0041,-1.1706 0.5749,1.4302 -4.375,3.318 -2.4062,0.91772 -14.2187,6.01059 -26.25,11.3175 -45.5879,20.10855 -54.5511,24.07448 -60.625,26.82465 -3.4375,1.55645 -23.6875,10.54082 -45,19.96527 -21.3125,9.42445 -63.2187,27.98277 -93.125,41.24072 -29.9062,13.25796 -76.5937,33.95515 -103.74997,45.99376 -27.15625,12.03862 -59.21875,26.22093 -71.25,31.51624 -12.03125,5.29533 -32,14.12364 -44.375,19.61849 -12.375,5.49484 -25.03125,11.11371 -28.125,12.48639 -3.09375,1.37267 -10.40625,4.64442 -16.25,7.27055 -5.84375,2.62611 -17.65625,7.85888 -26.25,11.62837 -19.2835,8.45836 -80.06162,35.30088 -86.875,38.36815 -12.8125,5.76801 -42.26975,18.81601 -230.625,102.1547 -20.96875,9.27773 -62.59375,27.71998 -92.5,40.98278 -76.75876,34.04094 -156.95145,69.56384 -208.75,92.46994 -24.40624,10.7928 -49.15624,21.772 -54.99999,24.3982 -5.84375,2.6262 -19.90625,8.8307 -31.25,13.7878 -11.343752,4.9571 -27.656251,12.25 -36.250001,16.2064 -98.486755,45.3413 -187.676259,72.4205 -265.418459,80.5846 -19.6458,2.0631 -65.3552,2.358 -82.7065,0.5336 z"
         style="fill:#000000" />
    </a>
  </g>
</svg>
